<?xml version="1.0" encoding="UTF-8"?>
<svg width="146px" height="113px" viewBox="0 0 146 113" version="1.1" xmlns="http://www.w3.org/2000/svg" xmlns:xlink="http://www.w3.org/1999/xlink">
    <title>slice-146x113</title>
    <g id="Page-1" stroke="none" stroke-width="1" fill="none" fill-rule="evenodd">
        <g id="icon-Democracy_2-lgr" transform="translate(10.500000, 10.000000)">
            <path d="M46.5,26 L46.5,79 L79.5,79 L79.5,26 L46.5,26 Z M78.3015609,76.4444747 L47.716195,76.4444747 L47.716195,28.167247 L78.3015609,28.167247 L78.3015609,76.4444747 Z" id="Shape" fill="#FFFFFF" fill-rule="nonzero"></path>
            <path d="M55.5,57 L55.5,71 L71.5,71 L71.5,57 L55.5,57 Z M70.3292683,69.9756098 L57.0609756,69.9756098 L57.0609756,58.3658537 L70.3292683,58.3658537 L70.3292683,69.9756098 Z" id="Shape" fill="#FFFFFF" fill-rule="nonzero"></path>
            <polygon id="Path" fill="#FFFFFF" fill-rule="nonzero" points="70.2263246 46.6643882 70.2263246 50.8835579 56.7782331 50.8835579 56.7782331 39.1161354 67.7385731 39.1161354 69.2723827 38 55.5 38 55.5 52 71.5 52 71.5 45.5522401"></polygon>
            <polygon id="Path" fill="#FFFFFF" fill-rule="nonzero" points="59.828717 39.7070289 55.5 43.280567 63.6774236 50 77.5 38.64304 74.3372964 36 63.7708388 43.216775"></polygon>
            <polygon id="Rectangle" fill="#6DD400" points="42.2751334 83 83.5251334 83 90.5 91 35.5 91"></polygon>
            <path d="M29.7667246,74 L31.0780581,75.215827 L5.123,99.28 L122.5,99.280561 L122.5,101 L2.88438802,101 L2.884,100.139 L2.501,99.784 L2.50164324,99.280561 L29.7667246,74 Z" id="Combined-Shape" fill="#FFFFFF"></path>
            <path d="M29.7657246,74 L31.0770581,75.215827 L5.122,99.28 L122.499,99.280561 L122.499,101 L2.88338802,101 L2.883,100.139 L2.5,99.784 L2.50064324,99.280561 L29.7657246,74 Z" id="Combined-Shape" fill="#FFFFFF" transform="translate(62.499500, 87.500000) scale(-1, 1) translate(-62.499500, -87.500000) "></path>
            <rect id="Rectangle" fill="#FFFFFF" x="30.5" y="74" width="66" height="1"></rect>
            <path d="M102.694778,-2.64396348 C102.000121,-2.01449629 102.118541,-0.350092787 103.050039,2.34924702 L102.575346,20.66242 L91.5275953,25.6136035 C91.3062941,25.95002 90.8814642,26.1688901 90.3940014,26.1976252 C89.9065385,26.2263602 89.4201601,26.0612042 89.0961746,25.7569313 C88.3614323,25.1561952 87.3740176,23.7640481 88.0803972,23.2007625 L92.5788984,19.1991401 C93.7918795,18.2318375 96.2621524,16.3181456 95.0004654,15.2865336 C94.3998304,14.7952347 93.5854743,14.5058324 92.741948,14.4839116 C91.8984217,14.4619908 91.0971457,14.7094076 90.5197069,15.1700918 L82.1739971,21.8007665 C80.2948667,23.2953907 78.2648206,27.2887426 78.4793899,29.4498506 L78.6792789,31.3431556 L78.861816,48.939493 L90.2728717,48.5149156 L89.9898343,36.8989062 C90.9200365,36.5553024 91.7643638,36.1380682 92.4859503,35.5681287 L106.595648,24.4223916 C107.423912,23.7652482 107.87414,22.8639283 107.84928,21.9127203 L107.341388,1.06853402 C107.277905,-0.911787639 104.066836,-3.88726062 102.694778,-2.64396348 Z" id="Path" fill="#FFFFFF" fill-rule="nonzero" transform="translate(93.156996, 23.000617) rotate(-71.000000) translate(-93.156996, -23.000617) "></path>
        </g>
    </g>
</svg>