<?xml version="1.0" encoding="UTF-8"?>
<svg width="146px" height="113px" viewBox="0 0 146 113" version="1.1" xmlns="http://www.w3.org/2000/svg" xmlns:xlink="http://www.w3.org/1999/xlink">
    <!-- Generator: Sketch 63.1 (92452) - https://sketch.com -->
    <title>slice-146x113</title>
    <desc>Created with Sketch.</desc>
    <g id="Page-1" stroke="none" stroke-width="1" fill="none" fill-rule="evenodd">
        <g id="icon-Human-Rights-5-lgr" transform="translate(1.598039, 7.772727)" fill="#FFFFFF">
            <path d="M110.606081,71.2335116 C106.161743,86.2736878 103.631536,94.6639868 103.015462,96.4044085 C101.829545,99.7546488 100.795712,102.095558 99.2607897,102.095558 C97.7258677,102.095558 97.8322415,98.7230714 98.3438873,96.4044085 C99.5722957,90.837539 102.907928,85.2720862 105.8943,71.8125828 Z M119.362955,29.6869835 C123.272942,26.4948347 130.657294,15.0668758 134.602273,16.4978854 C138.547252,17.9288949 123.443512,33.6413066 121.097117,36.1252051 C121.611275,40.3099857 122.33655,45.0759994 123.272942,50.4232462 C124.67753,58.4441164 131.716719,93.1520568 132.024335,96.7176015 C132.331951,100.283146 131.716719,101.747333 130.505682,101.747333 C129.294645,101.747333 128.512971,99.8912953 127.927744,96.7176015 C127.537592,94.6018056 124.690466,81.1785486 119.386364,56.4478306 L119.386364,56.4478306 L114.844301,56.8493974 L114.632389,57.5702074 C113.824996,60.3162475 113.059158,62.9179242 112.334874,65.3752377 L108.738323,36.0848201 L102.443958,36.8572409 C102.996374,33.903797 103.897713,31.8682851 105.340909,31.8682851 C107.390812,31.8682851 114.806855,33.4066239 119.362955,29.6869835 Z M110.567495,11.9705579 C115.504156,11.9705579 119.50611,15.8093354 119.50611,20.5447074 C119.50611,25.2800795 115.504156,29.118857 110.567495,29.118857 C105.630834,29.118857 101.62888,25.2800795 101.62888,20.5447074 C101.62888,15.8093354 105.630834,11.9705579 110.567495,11.9705579 Z" id="Combined-Shape" fill-rule="nonzero"></path>
            <g id="youth-female" transform="translate(33.357955, 11.970558)">
                <path d="M2.58471585,4.52732752 C6.68130676,4.52732752 5.58130933,11.544639 7.68973841,16.1404512 C9.7981675,20.7362633 14.8406942,14.5242769 18.7506818,17.7164256 C23.3067815,21.436066 29.5523696,19.8977273 31.6022727,19.8977273 C33.6523038,19.8977273 34.8077901,24.0049062 35.4578683,29.016068 L33.9200835,29.2049451 L36.2100798,47.8529339 C35.9519593,49.7702447 35.0265123,50.939573 33.5571087,50.939573 C31.8084302,50.939573 31.6022727,48.4311879 31.6022727,45.6477273 C31.6022727,43.7920869 30.7069148,37.349859 28.916199,26.3210437 C29.6729149,62.3427518 30.0588399,81.292406 30.0739743,83.1700063 L30.0744376,83.2636302 C30.0744376,85.0709492 29.0406038,88.9545455 27.5056818,88.9545455 C25.9707598,88.9545455 25.9707598,86.4206126 25.9707598,83.2636302 L25.9704897,83.1972835 C25.9526603,80.9020076 25.0522754,68.129193 23.2693351,44.8788396 L23.2693351,44.8788396 L19.3192779,45.4856539 C18.1742572,69.5441179 17.4066711,82.6312478 17.0165196,84.7470436 C16.4312923,87.9207375 15.6496188,89.7767756 14.4385817,89.7767756 C13.2275446,89.7767756 12.6123128,88.3125883 12.9199287,84.7470436 C13.125006,82.3700138 13.7652611,62.3132795 14.8406942,24.5768407 C12.4942993,22.0929422 6.4606616,25.8310367 4.10336886,19.8977273 C1.74607612,13.9644179 -1.51187506,4.52732752 2.58471585,4.52732752 Z" id="Combined-Shape" fill-rule="nonzero"></path>
                <ellipse id="Oval" fill-rule="nonzero" cx="25.324979" cy="8.57414957" rx="8.93861538" ry="8.57414957"></ellipse>
                <path d="M28.9716879,4.9867906 C31.405992,3.4638501 34.4220913,2.92881201 38.0199857,3.38167632 C39.6761594,3.59012895 40.8580219,5.08985829 40.6735123,6.74887006 L40.5049388,8.26459356 C40.405067,9.16258772 39.5961368,9.80959371 38.6981426,9.7097219 C38.2537414,9.66029713 37.8489359,9.4311296 37.5778617,9.07552587 C36.2517847,7.33582316 35.1487058,6.20361067 34.268625,5.67888842 C32.2066929,4.44952208 24.3580751,7.87314218 28.9716879,4.9867906 Z" id="Rectangle" transform="translate(34.263594, 7.904862) rotate(40.000000) translate(-34.263594, -7.904862) "></path>
            </g>
            <path d="M108.181453,35.9914773 L112.389407,70.2625168 L71.7288517,75.2550053 L67.5208972,40.9839657 L92.7713599,37.8839983 C92.6247215,38.4615694 92.5454454,39.078214 92.5454454,39.7186341 C92.5454454,42.9848136 94.6074612,45.6325752 97.1510865,45.6325752 C99.6947118,45.6325752 101.756728,42.9848136 101.756728,39.7186341 C101.756728,38.6782503 101.54751,37.700613 101.180151,36.8513088 L108.181453,35.9914773 Z" id="Combined-Shape"></path>
            <ellipse id="Oval" cx="97.4403409" cy="38.2916016" rx="3.21875" ry="4.66763461"></ellipse>
            <ellipse id="Oval" transform="translate(138.406250, 11.970558) rotate(38.000000) translate(-138.406250, -11.970558) " cx="138.40625" cy="11.9705579" rx="3.21875" ry="4.66763461"></ellipse>
            <path d="M21.7358073,0.412723381 C22.1875564,0.18969365 22.7236629,0.222752813 23.1445872,0.499596207 C23.5655115,0.776439601 23.8082124,1.25560482 23.7823564,1.75874594 L23.7823564,1.75874594 L23.7823564,20.9673115 C23.8082124,21.4704527 23.5655115,21.9496179 23.1445872,22.2264613 C22.7236629,22.5033047 22.1875564,22.5363638 21.7358073,22.3133341 L21.7358073,22.3133341 L10.0317936,16.0857138 C9.78761588,15.9503532 9.6374839,15.6918479 9.64085983,15.4126823 L9.64085983,15.4126823 L9.64085983,7.31333478 C9.63749587,7.0341828 9.7876266,6.77569516 10.0317936,6.64034371 L10.0317936,6.64034371 Z M7.62059072,6.98591333 C7.99256416,6.98591333 8.29411379,7.28746296 8.29411379,7.6594364 L8.29411379,7.6594364 L8.29411379,15.0666143 C8.29411379,15.4385878 7.99256416,15.74013 7.62059072,15.7401374 L7.62059072,15.7401374 L6.27390823,15.7401374 L6.27390823,20.1172494 C6.27390823,21.0470234 5.52017753,21.8007541 4.5904036,21.8007541 C3.66062967,21.8007541 2.90689897,21.0470234 2.90689897,20.1172494 L2.90689897,20.1172494 L2.90689897,15.7401374 L2.25676315,15.7401374 C1.14081219,15.7401262 0.236146824,14.835472 0.236146824,13.7195211 L0.236146824,13.7195211 L0.236146824,9.00648926 C0.236146824,7.89054637 1.14082027,6.98591333 2.25676315,6.98591333 L2.25676315,6.98591333 Z M26.2656121,15.2022044 C26.5781392,15.0217665 26.9631887,15.0217663 27.275716,15.2022038 L27.275716,15.2022038 L31.3579656,17.5591103 C31.6704929,17.7395478 31.8630181,18.0730102 31.8630181,18.4338856 C31.8630181,18.794761 31.6704938,19.1282237 31.3579667,19.3086615 C31.0454396,19.4890994 30.6603902,19.4890997 30.3478628,19.3086622 L30.3478628,19.3086622 L26.2656132,16.9517557 C25.9530859,16.7713182 25.7605607,16.4378557 25.7605607,16.0769804 C25.7605607,15.716105 25.953085,15.3826423 26.2656121,15.2022044 Z M31.5264777,10.3529226 C32.084342,10.3529226 32.5365804,10.805161 32.5365804,11.3630254 C32.5365804,11.9208897 32.084342,12.3731281 31.5264777,12.3731281 L31.5264777,12.3731281 L26.8126647,12.3731281 C26.2548003,12.3731281 25.8025619,11.9208897 25.8025619,11.3630254 C25.8025619,10.805161 26.2548003,10.3529226 26.8126647,10.3529226 L26.8126647,10.3529226 Z M30.3478628,3.41734143 C30.6603914,3.23690393 31.0454419,3.23690481 31.3579696,3.41734373 C31.6704974,3.59778265 31.863021,3.93124665 31.863021,4.29212306 C31.863021,4.65299947 31.6704942,4.98646257 31.3579656,5.16690005 L31.3579656,5.16690005 L27.275716,7.52380653 C26.9631875,7.70424403 26.5781369,7.70424315 26.2656092,7.52380423 C25.9530815,7.34336531 25.7605578,7.00990131 25.7605578,6.64902491 C25.7605578,6.2881485 25.9530847,5.95468539 26.2656132,5.77424791 L26.2656132,5.77424791 Z" id="speaker" fill-rule="nonzero" transform="translate(16.386364, 11.363029) scale(-1, 1) translate(-16.386364, -11.363029) "></path>
        </g>
    </g>
</svg>