<?xml version="1.0" encoding="UTF-8"?>
<svg width="146px" height="113px" viewBox="0 0 146 113" version="1.1" xmlns="http://www.w3.org/2000/svg" xmlns:xlink="http://www.w3.org/1999/xlink">
    <!-- Generator: Sketch 63.1 (92452) - https://sketch.com -->
    <title>Slice-146x113</title>
    <desc>Created with Sketch.</desc>
    <g id="Page-1" stroke="none" stroke-width="1" fill="none" fill-rule="evenodd">
        <g id="icon-Oceans-and-the-Law-of-the-Sea" transform="translate(8.000000, 9.000000)" fill="#FFFFFF">
            <path d="M35.3888406,76.7559415 C36.576396,77.5138562 37.955964,77.9372846 39.3751205,77.9794434 C39.5427872,77.9953815 39.7268688,77.9953815 39.9280018,77.9953815 C41.5357536,78.0451537 43.1203676,77.6124736 44.46723,76.7559415 C45.1525475,76.3732705 45.8631895,76.0353251 46.5944698,75.7443338 C48.3736074,75.03543 50.2836111,74.6910659 52.2054082,74.7327098 C54.9343781,74.6839459 57.6222227,75.3851551 59.9607718,76.7559415 C61.3055051,77.6170348 62.8916324,78.0501282 64.5,77.9953815 C66.1028605,78.0479659 67.6829905,77.6149121 69.0224783,76.7559415 C71.3599763,75.3827612 74.048537,74.6813637 76.7778251,74.7327098 C78.7045301,74.6975447 80.6186899,75.0416279 82.4055637,75.7443338 C83.1299743,76.0384662 83.8348398,76.3763249 84.5160535,76.7559415 C85.862916,77.6124736 87.44753,78.0451537 89.0552818,77.9953815 C89.8114305,78.0140102 90.5666383,77.9317339 91.2998715,77.7508443 C92.1115316,77.5187407 92.888547,77.1842714 93.6111594,76.7559415 C93.9964076,76.5432642 94.3987742,76.3313863 94.8510555,76.1195084 C96.9351396,71.8139652 98.0106641,67.1111253 97.9999203,62.3511315 L97.9999203,48.6313359 C97.99708,47.7314895 97.2487746,47.0026875 96.3248474,47 L32.6751526,47 C31.7512254,47.0026875 31.00292,47.7314895 31.0000797,48.6313359 L31.0000797,62.3511315 C30.9893359,67.1111253 32.0648604,71.8139652 34.1489445,76.1195084 C34.6012258,76.3314189 35.0036259,76.5432642 35.3888406,76.7559415 Z M41.0501124,53.5253435 L87.9498876,53.5253435 L87.9498876,61.0129141 C88.0025266,64.0342816 87.4329838,67.0352897 86.2748956,69.8387022 L42.7251044,69.8387022 C41.5670162,67.0352897 40.9974734,64.0342816 41.0501124,61.0129141 L41.0501124,53.5253435 Z" id="Shape" fill-rule="nonzero"></path>
            <path d="M58.3333333,32 L71.6666667,32 C73.5076158,32 75,30.6568542 75,29 C75,27.3431458 73.5076158,26 71.6666667,26 L58.3333333,26 C56.4923842,26 55,27.3431458 55,29 C55,30.6568542 56.4923842,32 58.3333333,32 Z" id="Path" fill-rule="nonzero"></path>
            <polygon id="Triangle" transform="translate(71.500000, 9.500000) rotate(90.000000) translate(-71.500000, -9.500000) " points="71.5 2 81 17 62 17"></polygon>
            <path d="M44.1666667,44 L85.8333333,44 C88.1345198,44 90,42.209139 90,40 C90,37.790861 88.1345198,36 85.8333333,36 L44.1666667,36 C41.8654802,36 40,37.790861 40,40 C40,42.209139 41.8654802,44 44.1666667,44 Z" id="Path" fill-rule="nonzero"></path>
            <path d="M101.666667,93.0028556 C98.9525429,92.9488449 96.2790477,93.6676146 93.9583333,95.0752424 C91.179761,96.7539752 87.6988223,96.7539752 84.92025,95.0752424 C82.5990221,93.6674131 79.9249466,92.9486398 77.2102833,93.0028556 C74.4971704,92.9487391 71.8246889,93.6675393 69.5052,95.0752424 C68.1648778,95.9461035 66.5897088,96.3855163 64.9918667,96.3342922 C63.3935052,96.3854941 61.8178112,95.9460971 60.4768667,95.0752424 C58.1561571,93.6676176 55.4826681,92.9488481 52.76855,93.0028556 C50.0549771,92.9490564 47.3820746,93.6678221 45.0618833,95.0752424 C43.7215448,95.9461084 42.1463584,96.3855212 40.5485,96.3342922 C38.9517286,96.3850775 37.3777253,95.9456735 36.0384167,95.0752424 C33.7186092,93.6682836 31.0463481,92.9495426 28.3333333,93.0028556 C26.4923842,93.0028556 25,94.4943906 25,96.3342922 C25,98.1741939 26.4923842,99.6657289 28.3333333,99.6657289 C29.9306259,99.6147339 31.5051959,100.054142 32.845,100.924779 C35.1643073,102.331548 37.8360076,103.050286 40.5485,102.997166 C43.2620733,103.050968 45.9349765,102.332202 48.2551667,100.924779 C49.5955052,100.053913 51.1706916,99.6144999 52.76855,99.6657289 C54.3669117,99.6145249 55.9426064,100.053922 57.28355,100.924779 C59.6042596,102.332404 62.2777485,103.051173 64.9918667,102.997166 C67.7053414,103.050161 70.3780236,102.331455 72.6985333,100.924779 C75.4747697,99.2460432 78.9538803,99.2460432 81.7301167,100.924779 C86.4977317,103.687982 92.380835,103.687982 97.14845,100.924779 C98.4905991,100.053945 100.067304,99.6145788 101.666667,99.6657289 C103.507616,99.6657289 105,98.1741939 105,96.3342922 C105,94.4943906 103.507616,93.0028556 101.666667,93.0028556 L101.666667,93.0028556 Z" id="Path" fill-rule="nonzero"></path>
            <path d="M28.3333333,87.6657289 C29.9306259,87.6147339 31.5051959,88.0541419 32.845,88.9247788 C35.1643073,90.3315479 37.8360076,91.0502857 40.5485,90.9971656 C43.2620733,91.0509675 45.9349765,90.3322016 48.2551667,88.9247788 C49.5955052,88.0539127 51.1706916,87.6144999 52.76855,87.6657289 C54.3669117,87.6145249 55.9426064,88.053922 57.28355,88.9247788 C59.6042596,90.3324035 62.2777485,91.0511731 64.9918667,90.9971656 C67.7053414,91.0501613 70.3780236,90.3314548 72.6985333,88.9247788 C75.4747697,87.2460432 78.9538803,87.2460432 81.7301167,88.9247788 C86.4977317,91.6879818 92.380835,91.6879818 97.14845,88.9247788 C98.4905991,88.0539446 100.067304,87.6145788 101.666667,87.6657289 C103.507616,87.6657289 105,86.1741939 105,84.3342922 C105,82.4943906 103.507616,81.0028556 101.666667,81.0028556 C98.9525429,80.9488449 96.2790477,81.6676146 93.9583333,83.0752424 C91.179761,84.7539752 87.6988223,84.7539752 84.92025,83.0752424 C82.5990221,81.6674131 79.9249466,80.9486398 77.2102833,81.0028556 C74.4971704,80.9487391 71.8246889,81.6675393 69.5052,83.0752424 C68.1648778,83.9461035 66.5897088,84.3855163 64.9918667,84.3342922 C63.3935052,84.3854941 61.8178112,83.9460971 60.4768667,83.0752424 C58.1561571,81.6676176 55.4826681,80.9488481 52.76855,81.0028556 C50.0549771,80.9490564 47.3820746,81.6678221 45.0618833,83.0752424 C43.7215448,83.9461084 42.1463584,84.3855212 40.5485,84.3342922 C38.9517286,84.3850775 37.3777253,83.9456735 36.0384167,83.0752424 C33.7186092,81.6682836 31.0463481,80.9495426 28.3333333,81.0028556 C26.4923842,81.0028556 25,82.4943906 25,84.3342922 C25,86.1741939 26.4923842,87.6657289 28.3333333,87.6657289 L28.3333333,87.6657289 Z" id="Path" fill-rule="nonzero"></path>
            <path d="M52.3333333,87.6657289 C53.9306259,87.6147339 55.5051959,88.0541419 56.845,88.9247788 C59.1643073,90.3315479 61.8360076,91.0502857 64.5485,90.9971656 C67.2620733,91.0509675 69.9349765,90.3322016 72.2551667,88.9247788 C73.5955052,88.0539127 75.1706916,87.6144999 76.76855,87.6657289 C78.3669117,87.6145249 79.9426064,88.053922 81.28355,88.9247788 C83.6042596,90.3324035 86.2777485,91.0511731 88.9918667,90.9971656 C91.7053414,91.0501613 94.3780236,90.3314548 96.6985333,88.9247788 C99.4747697,87.2460432 102.95388,87.2460432 105.730117,88.9247788 C110.497732,91.6879818 116.380835,91.6879818 121.14845,88.9247788 C122.490599,88.0539446 124.067304,87.6145788 125.666667,87.6657289 C127.507616,87.6657289 129,86.1741939 129,84.3342922 C129,82.4943906 127.507616,81.0028556 125.666667,81.0028556 C122.952543,80.9488449 120.279048,81.6676146 117.958333,83.0752424 C115.179761,84.7539752 111.698822,84.7539752 108.92025,83.0752424 C106.599022,81.6674131 103.924947,80.9486398 101.210283,81.0028556 C98.4971704,80.9487391 95.8246889,81.6675393 93.5052,83.0752424 C92.1648778,83.9461035 90.5897088,84.3855163 88.9918667,84.3342922 C87.3935052,84.3854941 85.8178112,83.9460971 84.4768667,83.0752424 C82.1561571,81.6676176 79.4826681,80.9488481 76.76855,81.0028556 C74.0549771,80.9490564 71.3820746,81.6678221 69.0618833,83.0752424 C67.7215448,83.9461084 66.1463584,84.3855212 64.5485,84.3342922 C62.9517286,84.3850775 61.3777253,83.9456735 60.0384167,83.0752424 C57.7186092,81.6682836 55.0463481,80.9495426 52.3333333,81.0028556 C50.4923842,81.0028556 49,82.4943906 49,84.3342922 C49,86.1741939 50.4923842,87.6657289 52.3333333,87.6657289 L52.3333333,87.6657289 Z" id="Path" fill-rule="nonzero"></path>
            <path d="M52.3333333,99.6657289 C53.9306259,99.6147339 55.5051959,100.054142 56.845,100.924779 C59.1643073,102.331548 61.8360076,103.050286 64.5485,102.997166 C67.2620733,103.050968 69.9349765,102.332202 72.2551667,100.924779 C73.5955052,100.053913 75.1706916,99.6144999 76.76855,99.6657289 C78.3669117,99.6145249 79.9426064,100.053922 81.28355,100.924779 C83.6042596,102.332404 86.2777485,103.051173 88.9918667,102.997166 C91.7053414,103.050161 94.3780236,102.331455 96.6985333,100.924779 C99.4747697,99.2460432 102.95388,99.2460432 105.730117,100.924779 C110.497732,103.687982 116.380835,103.687982 121.14845,100.924779 C122.490599,100.053945 124.067304,99.6145788 125.666667,99.6657289 C127.507616,99.6657289 129,98.1741939 129,96.3342922 C129,94.4943906 127.507616,93.0028556 125.666667,93.0028556 C122.952543,92.9488449 120.279048,93.6676146 117.958333,95.0752424 C115.179761,96.7539752 111.698822,96.7539752 108.92025,95.0752424 C106.599022,93.6674131 103.924947,92.9486398 101.210283,93.0028556 C98.4971704,92.9487391 95.8246889,93.6675393 93.5052,95.0752424 C92.1648778,95.9461035 90.5897088,96.3855163 88.9918667,96.3342922 C87.3935052,96.3854941 85.8178112,95.9460971 84.4768667,95.0752424 C82.1561571,93.6676176 79.4826681,92.9488481 76.76855,93.0028556 C74.0549771,92.9490564 71.3820746,93.6678221 69.0618833,95.0752424 C67.7215448,95.9461084 66.1463584,96.3855212 64.5485,96.3342922 C62.9517286,96.3850775 61.3777253,95.9456735 60.0384167,95.0752424 C57.7186092,93.6682836 55.0463481,92.9495426 52.3333333,93.0028556 C50.4923842,93.0028556 49,94.4943906 49,96.3342922 C49,98.1741939 50.4923842,99.6657289 52.3333333,99.6657289 L52.3333333,99.6657289 Z" id="Path" fill-rule="nonzero"></path>
            <path d="M3.33333333,99.6657289 C4.93062588,99.6147339 6.50519593,100.054142 7.845,100.924779 C10.1643073,102.331548 12.8360076,103.050286 15.5485,102.997166 C18.2620733,103.050968 20.9349765,102.332202 23.2551667,100.924779 C24.5955052,100.053913 26.1706916,99.6144999 27.76855,99.6657289 C29.3669117,99.6145249 30.9426064,100.053922 32.28355,100.924779 C34.6042596,102.332404 37.2777485,103.051173 39.9918667,102.997166 C42.7053414,103.050161 45.3780236,102.331455 47.6985333,100.924779 C50.4747697,99.2460432 53.9538803,99.2460432 56.7301167,100.924779 C61.4977317,103.687982 67.380835,103.687982 72.14845,100.924779 C73.4905991,100.053945 75.067304,99.6145788 76.6666667,99.6657289 C78.5076158,99.6657289 80,98.1741939 80,96.3342922 C80,94.4943906 78.5076158,93.0028556 76.6666667,93.0028556 C73.9525429,92.9488449 71.2790477,93.6676146 68.9583333,95.0752424 C66.179761,96.7539752 62.6988223,96.7539752 59.92025,95.0752424 C57.5990221,93.6674131 54.9249466,92.9486398 52.2102833,93.0028556 C49.4971704,92.9487391 46.8246889,93.6675393 44.5052,95.0752424 C43.1648778,95.9461035 41.5897088,96.3855163 39.9918667,96.3342922 C38.3935052,96.3854941 36.8178112,95.9460971 35.4768667,95.0752424 C33.1561571,93.6676176 30.4826681,92.9488481 27.76855,93.0028556 C25.0549771,92.9490564 22.3820746,93.6678221 20.0618833,95.0752424 C18.7215448,95.9461084 17.1463584,96.3855212 15.5485,96.3342922 C13.9517286,96.3850775 12.3777253,95.9456735 11.0384167,95.0752424 C8.7186092,93.6682836 6.04634806,92.9495426 3.33333333,93.0028556 C1.49238417,93.0028556 0,94.4943906 0,96.3342922 C0,98.1741939 1.49238417,99.6657289 3.33333333,99.6657289 L3.33333333,99.6657289 Z" id="Path" fill-rule="nonzero"></path>
            <path d="M3.33333333,87.6657289 C4.93062588,87.6147339 6.50519593,88.0541419 7.845,88.9247788 C10.1643073,90.3315479 12.8360076,91.0502857 15.5485,90.9971656 C18.2620733,91.0509675 20.9349765,90.3322016 23.2551667,88.9247788 C24.5955052,88.0539127 26.1706916,87.6144999 27.76855,87.6657289 C29.3669117,87.6145249 30.9426064,88.053922 32.28355,88.9247788 C34.6042596,90.3324035 37.2777485,91.0511731 39.9918667,90.9971656 C42.7053414,91.0501613 45.3780236,90.3314548 47.6985333,88.9247788 C50.4747697,87.2460432 53.9538803,87.2460432 56.7301167,88.9247788 C61.4977317,91.6879818 67.380835,91.6879818 72.14845,88.9247788 C73.4905991,88.0539446 75.067304,87.6145788 76.6666667,87.6657289 C78.5076158,87.6657289 80,86.1741939 80,84.3342922 C80,82.4943906 78.5076158,81.0028556 76.6666667,81.0028556 C73.9525429,80.9488449 71.2790477,81.6676146 68.9583333,83.0752424 C66.179761,84.7539752 62.6988223,84.7539752 59.92025,83.0752424 C57.5990221,81.6674131 54.9249466,80.9486398 52.2102833,81.0028556 C49.4971704,80.9487391 46.8246889,81.6675393 44.5052,83.0752424 C43.1648778,83.9461035 41.5897088,84.3855163 39.9918667,84.3342922 C38.3935052,84.3854941 36.8178112,83.9460971 35.4768667,83.0752424 C33.1561571,81.6676176 30.4826681,80.9488481 27.76855,81.0028556 C25.0549771,80.9490564 22.3820746,81.6678221 20.0618833,83.0752424 C18.7215448,83.9461084 17.1463584,84.3855212 15.5485,84.3342922 C13.9517286,84.3850775 12.3777253,83.9456735 11.0384167,83.0752424 C8.7186092,81.6682836 6.04634806,80.9495426 3.33333333,81.0028556 C1.49238417,81.0028556 0,82.4943906 0,84.3342922 C0,86.1741939 1.49238417,87.6657289 3.33333333,87.6657289 L3.33333333,87.6657289 Z" id="Path" fill-rule="nonzero"></path>
        </g>
    </g>
</svg>